<?xml version="1.0" standalone="no"?>
<!DOCTYPE svg PUBLIC "-//W3C//DTD SVG 20010904//EN"
 "http://www.w3.org/TR/2001/REC-SVG-20010904/DTD/svg10.dtd">
<svg version="1.0" xmlns="http://www.w3.org/2000/svg"
 width="3000.000000pt" height="3000.000000pt" viewBox="0 0 3000.000000 3000.000000"
 preserveAspectRatio="xMidYMid meet">
<metadata>
Created by potrace 1.14, written by Peter Selinger 2001-2017
</metadata>
<g transform="translate(0.000000,3000.000000) scale(0.100000,-0.100000)"
fill="#000000" stroke="none">
<path d="M17980 25320 l0 -1490 -1480 0 -1480 0 0 -2950 0 -2950 -2950 0
-2950 0 0 -1475 0 -1475 -1490 0 -1490 0 0 -2955 0 -2955 1490 0 1490 0 0
-1475 0 -1475 1475 0 1475 0 0 -1465 0 -1465 1475 0 1475 0 0 1465 0 1465
2955 0 2955 0 0 -1465 0 -1465 1465 0 1465 0 0 1465 0 1465 -1465 0 -1465 0 0
1475 0 1475 1465 0 1465 0 0 2955 0 2955 -1465 0 -1465 0 0 1475 0 1475 -1475
0 -1475 0 0 2950 0 2950 1475 0 1475 0 0 1490 0 1490 -1475 0 -1475 0 0 -1490z"/>
</g>
</svg>
